<?xml version="1.0" standalone="no"?>
<!DOCTYPE svg PUBLIC "-//W3C//DTD SVG 1.0//EN" "http://www.w3.org/TR/2001/REC-SVG-20010904/DTD/svg10.dtd">
<svg xmlns="http://www.w3.org/2000/svg" xmlns:xlink="http://www.w3.org/1999/xlink" id="body_1" width="103" height="26">

<g transform="matrix(1 0 0 1 0 0)">
    <path d="M102.3691 13C 102.36911 16.45178 101.14872 19.398058 98.70794 21.838835C 96.267166 24.279612 93.32088 25.5 89.8691 25.5C 86.41733 25.5 83.471054 24.279612 81.030266 21.838835C 78.58949 19.398058 77.3691 16.45178 77.3691 13C 77.3691 9.548221 78.58949 6.601942 81.030266 4.161165C 83.471054 1.7203885 86.41733 0.5 89.8691 0.5C 93.32088 0.5 96.267166 1.7203885 98.70794 4.161165C 101.14872 6.601942 102.36911 9.548221 102.3691 13C 102.36911 13.14546 102.36657 13.2908745 102.36149 13.436244" stroke="#FFFFFF" stroke-width="1" fill="none" />
    <path d="M83.1523 13C 83.1523 16.45178 81.931915 19.398058 79.491135 21.838835C 77.05036 24.279612 74.10408 25.5 70.6523 25.5C 67.200516 25.5 64.25424 24.279612 61.81346 21.838835C 59.37269 19.398058 58.152298 16.45178 58.152298 13C 58.152298 9.548221 59.37269 6.601942 61.81346 4.161165C 64.25424 1.7203885 67.200516 0.5 70.6523 0.5C 74.10408 0.5 77.05036 1.7203885 79.491135 4.161165C 81.931915 6.601942 83.1523 9.548221 83.1523 13C 83.1523 13.14546 83.149765 13.2908745 83.144684 13.436244" stroke="#FFFFFF" stroke-width="1" fill="none" />
    <path d="M63.9346 13C 63.934605 16.45178 62.71422 19.398058 60.273438 21.838835C 57.832664 24.279612 54.886383 25.5 51.4346 25.5C 47.982822 25.5 45.036545 24.279612 42.595764 21.838835C 40.15499 19.398058 38.9346 16.45178 38.9346 13C 38.9346 9.548221 40.15499 6.601942 42.595764 4.161165C 45.036545 1.7203885 47.982822 0.5 51.4346 0.5C 54.886383 0.5 57.832664 1.7203885 60.273438 4.161165C 62.71422 6.601942 63.934605 9.548221 63.9346 13C 63.934605 13.14546 63.932068 13.2908745 63.926987 13.436244" stroke="#FFFFFF" stroke-width="1" fill="none" />
    <path d="M44.7178 13C 44.7178 16.45178 43.497414 19.398058 41.056633 21.838835C 38.61586 24.279612 35.66958 25.5 32.2178 25.5C 28.766022 25.5 25.819744 24.279612 23.378965 21.838835C 20.93819 19.398058 19.7178 16.45178 19.7178 13C 19.7178 9.548221 20.93819 6.601942 23.378965 4.161165C 25.819744 1.7203885 28.766022 0.5 32.2178 0.5C 35.66958 0.5 38.61586 1.7203885 41.056633 4.161165C 43.497414 6.601942 44.7178 9.548221 44.7178 13C 44.7178 13.14546 44.715263 13.2908745 44.710186 13.436244" stroke="#FFFFFF" stroke-width="1" fill="none" />
    <path d="M25.5 13C 25.5 16.45178 24.279612 19.398058 21.838835 21.838835C 19.398058 24.279612 16.45178 25.5 13 25.5C 9.548221 25.5 6.601942 24.279612 4.161165 21.838835C 1.7203885 19.398058 0.5 16.45178 0.5 13C 0.5 9.548221 1.7203885 6.601942 4.161165 4.161165C 6.601942 1.7203885 9.548221 0.5 13 0.5C 16.45178 0.5 19.398058 1.7203885 21.838835 4.161165C 24.279612 6.601942 25.5 9.548221 25.5 13C 25.5 13.14546 25.497463 13.2908745 25.492386 13.436244" stroke="#FFFFFF" stroke-width="1" fill="none" />
</g>
</svg>