<?xml version="1.0" standalone="no"?>
<!DOCTYPE svg PUBLIC "-//W3C//DTD SVG 1.0//EN" "http://www.w3.org/TR/2001/REC-SVG-20010904/DTD/svg10.dtd">
<svg xmlns="http://www.w3.org/2000/svg" xmlns:xlink="http://www.w3.org/1999/xlink" id="body_1" width="45" height="45">

<g transform="matrix(1 0 0 1 0 0)">
    <path d="M44.5 22.5C 44.5 28.575132 42.35212 33.760582 38.05635 38.05635C 33.760582 42.35212 28.575132 44.5 22.5 44.5C 16.424868 44.5 11.239418 42.35212 6.943651 38.05635C 2.6478837 33.760582 0.5 28.575132 0.5 22.5C 0.5 16.424868 2.6478837 11.239418 6.943651 6.943651C 11.239418 2.6478837 16.424868 0.5 22.5 0.5C 28.575132 0.5 33.760582 2.6478837 38.05635 6.943651C 42.35212 11.239418 44.5 16.424868 44.5 22.5C 44.5 22.756008 44.495537 23.011938 44.4866 23.267788" stroke="#E3E3E3" stroke-width="1" fill="none" />
</g>
</svg>